<svg width="28" height="64" viewBox="0 0 28 64" fill="none" xmlns="http://www.w3.org/2000/svg">
<rect x="0.5" y="0.5" width="27" height="48" rx="13.5" stroke="white"/>
<path d="M13.6464 63.3536C13.8417 63.5488 14.1583 63.5488 14.3536 63.3536L17.5355 60.1716C17.7308 59.9763 17.7308 59.6597 17.5355 59.4645C17.3403 59.2692 17.0237 59.2692 16.8284 59.4645L14 62.2929L11.1716 59.4645C10.9763 59.2692 10.6597 59.2692 10.4645 59.4645C10.2692 59.6597 10.2692 59.9763 10.4645 60.1716L13.6464 63.3536ZM13.5 35L13.5 63L14.5 63L14.5 35L13.5 35Z" fill="white"/>
<path d="M13.5 8L13.5 19L14.5 19L14.5 8L13.5 8Z" fill="white"/>
</svg>
